<svg width="170" height="102" viewBox="0 0 170 102" fill="none" xmlns="http://www.w3.org/2000/svg">
<path d="M9 16.5H6.9911L7.5618 18.4261L31.5618 99.4261L31.88 100.5H33H45H47.0089L46.4382 98.5739L22.4382 17.5739L22.12 16.5H21H9Z" fill="#E6E6FA" stroke="#2F014C" stroke-width="3"/>
<path d="M9 16.5H7.5V18V99V100.5H9H21H22.5V99V18V16.5H21H9Z" fill="#E6E6FA" stroke="#2F014C" stroke-width="3"/>
<path d="M129 16.5H126.991L127.562 18.4261L151.562 99.4261L151.88 100.5H153H165H167.009L166.438 98.5739L142.438 17.5739L142.12 16.5H141H129Z" fill="#E6E6FA" stroke="#2F014C" stroke-width="3"/>
<path d="M129 16.5H127.5V18V99V100.5H129H141H142.5V99V18V16.5H141H129Z" fill="#E6E6FA" stroke="#2F014C" stroke-width="3"/>
<rect x="1.5" y="28.5" width="147" height="21" rx="4.5" fill="#E6E6FA" stroke="#2F014C" stroke-width="3"/>
<path d="M21 30H45L33 48H9L21 30Z" fill="#FF7F50"/>
<path d="M69 30H93L81 48H57L69 30Z" fill="#FF7F50"/>
<path d="M117 30H141L129 48H105L117 30Z" fill="#FF7F50"/>
<rect x="1.5" y="58.5" width="147" height="21" rx="4.5" fill="#E6E6FA" stroke="#2F014C" stroke-width="3"/>
<path d="M21 60H45L33 78H9L21 60Z" fill="#FF7F50"/>
<path d="M69 60H93L81 78H57L69 60Z" fill="#FF7F50"/>
<path d="M117 60H141L129 78H105L117 60Z" fill="#FF7F50"/>
<rect x="4.5" y="1.5" width="21" height="21" rx="10.5" fill="#FF7F50" stroke="#2F014C" stroke-width="3"/>
<rect x="124.5" y="1.5" width="21" height="21" rx="10.5" fill="#FF7F50" stroke="#2F014C" stroke-width="3"/>
</svg>
