<svg width="432" height="288" viewBox="0 0 432 288" fill="none" xmlns="http://www.w3.org/2000/svg">
<rect x="210" y="144" width="12" height="144" fill="#581B8D"/>
<path d="M226.5 144L226.5 216L226.5 288" stroke="#581B8D" stroke-width="3"/>
<path d="M225 216L223.5 216L222 216" stroke="#581B8D" stroke-width="3"/>
<path d="M225 240L223.5 240L222 240" stroke="#581B8D" stroke-width="3"/>
<path d="M225 264L223.5 264L222 264" stroke="#581B8D" stroke-width="3"/>
<path d="M225 192L223.5 192L222 192" stroke="#581B8D" stroke-width="3"/>
<path d="M225 168L223.5 168L222 168" stroke="#581B8D" stroke-width="3"/>
<path d="M225 144L223.5 144L222 144" stroke="#581B8D" stroke-width="3"/>
<rect x="1.5" y="1.5" width="429" height="141" rx="4.5" stroke="#2D004C" stroke-width="3"/>
<rect x="1.5" y="148.5" width="429" height="6" rx="1.5" stroke="#2D004C" stroke-width="3"/>
<path d="M405 3H426C427.657 3 429 4.34315 429 6V27L405 3Z" fill="#4B0082"/>
<path d="M429 27L408 27C406.343 27 405 25.6569 405 24L405 3L429 27Z" fill="#DDA0DD"/>
<path d="M77.5 140L77.5 137.75C77.5 136.507 76.4926 135.5 75.25 135.5L68.75 135.5C67.5074 135.5 66.5 136.507 66.5 137.75L66.5 140C66.5 142.485 68.5147 144.5 71 144.5L73 144.5C75.4853 144.5 77.5 142.485 77.5 140Z" fill="#663399" stroke="#2D004C" stroke-width="3"/>
<path d="M149.5 140L149.5 137.75C149.5 136.507 148.493 135.5 147.25 135.5L140.75 135.5C139.507 135.5 138.5 136.507 138.5 137.75L138.5 140C138.5 142.485 140.515 144.5 143 144.5L145 144.5C147.485 144.5 149.5 142.485 149.5 140Z" fill="#663399" stroke="#2D004C" stroke-width="3"/>
<path d="M221.5 140L221.5 137.75C221.5 136.507 220.493 135.5 219.25 135.5L212.75 135.5C211.507 135.5 210.5 136.507 210.5 137.75L210.5 140C210.5 142.485 212.515 144.5 215 144.5L217 144.5C219.485 144.5 221.5 142.485 221.5 140Z" fill="#663399" stroke="#2D004C" stroke-width="3"/>
<path d="M293.5 140L293.5 137.75C293.5 136.507 292.493 135.5 291.25 135.5L284.75 135.5C283.507 135.5 282.5 136.507 282.5 137.75L282.5 140C282.5 142.485 284.515 144.5 287 144.5L289 144.5C291.485 144.5 293.5 142.485 293.5 140Z" fill="#663399" stroke="#2D004C" stroke-width="3"/>
<path d="M365.5 140L365.5 137.75C365.5 136.507 364.493 135.5 363.25 135.5L356.75 135.5C355.507 135.5 354.5 136.507 354.5 137.75L354.5 140C354.5 142.485 356.515 144.5 359 144.5L361 144.5C363.485 144.5 365.5 142.485 365.5 140Z" fill="#663399" stroke="#2D004C" stroke-width="3"/>
</svg>
