<svg width="149" height="78" viewBox="0 0 149 78" fill="none" xmlns="http://www.w3.org/2000/svg">
<path d="M23.5 10.5L23.5 4.5C23.5 2.84314 22.1569 1.5 20.5 1.5L8.62132 1.5C5.94861 1.5 4.6101 4.73143 6.5 6.62132L12.5 12.6213C13.0626 13.1839 13.8257 13.5 14.6213 13.5L20.5 13.5C22.1569 13.5 23.5 12.1569 23.5 10.5Z" fill="#E6E6FA" stroke="#2F014C" stroke-width="3"/>
<mask id="path-2-outside-1_38_2749" maskUnits="userSpaceOnUse" x="1" y="0" width="119" height="60" fill="black">
<rect fill="white" x="1" width="119" height="60"/>
<path d="M90.6306 8.42502C86.3427 4.91674 80.9731 3 75.4329 3H65H36.5H20L4 57H117V30L90.6306 8.42502Z"/>
</mask>
<path d="M90.6306 8.42502C86.3427 4.91674 80.9731 3 75.4329 3H65H36.5H20L4 57H117V30L90.6306 8.42502Z" fill="#E6E6FA"/>
<path d="M20 3V0H17.76L17.1236 2.14774L20 3ZM117 30H120C120 29.1002 119.596 28.2479 118.9 27.6781L117 30ZM90.6306 8.42502L88.7309 10.7469L88.7309 10.7469L90.6306 8.42502ZM4 57L1.12361 56.1477C0.85471 57.0553 1.02987 58.0365 1.59617 58.7949C2.16247 59.5533 3.05348 60 4 60L4 57ZM117 57V60H120V57H117ZM75.4329 0H65V6H75.4329V0ZM118.9 27.6781L92.5303 6.10315L88.7309 10.7469L115.1 32.3219L118.9 27.6781ZM75.4329 6C80.2806 6 84.979 7.67715 88.7309 10.7469L92.5303 6.10315C87.7064 2.15634 81.6656 0 75.4329 0V6ZM65 0H36.5V6H65V0ZM36.5 0H20V6H36.5V0ZM4 60H117V54H4V60ZM120 57V30H114V57H120ZM17.1236 2.14774L1.12361 56.1477L6.87639 57.8523L22.8764 3.85226L17.1236 2.14774Z" fill="#2F014C" mask="url(#path-2-outside-1_38_2749)"/>
<path d="M18.6708 4.65836C19.179 3.64201 20.2178 3 21.3541 3H25.4614L10.8541 30C8.62394 30 7.17346 27.6531 8.17081 25.6584L18.6708 4.65836Z" fill="#E6E6FA"/>
<path d="M2.5 36L2.5 43.1459C2.5 44.9983 4.00168 46.5 5.8541 46.5C7.12454 46.5 8.28594 45.7822 8.8541 44.6459L12.1708 38.0125C13.6668 35.0204 11.4911 31.5 8.1459 31.5L7 31.5C4.51472 31.5 2.5 33.5147 2.5 36Z" fill="#FF69B4" stroke="#2F014C" stroke-width="3"/>
<path d="M3.5 60C3.5 58.3431 4.84315 57 6.5 57H143C144.657 57 146 58.3431 146 60V66.0423C146 67.6991 144.657 69.0423 143 69.0423H6.5C4.84315 69.0423 3.5 67.6991 3.5 66.0423V60Z" fill="#2F014C"/>
<path d="M26 46.5H6.5C4.01472 46.5 2 48.5147 2 51V60C2 62.4853 4.01472 64.5 6.5 64.5H26C28.4853 64.5 30.5 62.4853 30.5 60V51C30.5 48.5147 28.4853 46.5 26 46.5Z" fill="#E6E6FA" stroke="#2F014C" stroke-width="3"/>
<path d="M137.5 46.5H118C115.515 46.5 113.5 48.5147 113.5 51V60C113.5 62.4853 115.515 64.5 118 64.5H137.5C139.985 64.5 142 62.4853 142 60V51C142 48.5147 139.985 46.5 137.5 46.5Z" fill="#E6E6FA" stroke="#2F014C" stroke-width="3"/>
<path d="M143 55.5H32C29.5147 55.5 27.5 57.5147 27.5 60C27.5 62.4853 29.5147 64.5 32 64.5H143C145.485 64.5 147.5 62.4853 147.5 60C147.5 57.5147 145.485 55.5 143 55.5Z" fill="#E6E6FA" stroke="#2F014C" stroke-width="3"/>
<path d="M53 10.5H40.0813C38.3947 10.5 36.8497 11.4431 36.0788 12.9432L29.9122 24.9432C28.3732 27.9379 30.5476 31.5 33.9146 31.5H53C55.4853 31.5 57.5 29.4853 57.5 27V15C57.5 12.5147 55.4853 10.5 53 10.5Z" fill="#DDA0DD" stroke="#2F014C" stroke-width="3"/>
<path d="M99 33C99 31.3431 100.343 30 102 30H139.75C142.649 30 145 32.3505 145 35.25V45C145 46.6569 143.657 48 142 48H102C100.343 48 99 46.6569 99 45V33Z" fill="#E6E6FA"/>
<rect x="11" y="42" width="36" height="36" rx="18" fill="#3C0066"/>
<rect x="11" y="42" width="36" height="36" rx="18" fill="#2F014C"/>
<rect x="14" y="45" width="30" height="30" rx="15" fill="#663399"/>
<rect x="20" y="51" width="18" height="18" rx="9" fill="#2F014C"/>
<rect x="23.75" y="54.75" width="10.5" height="10.5" rx="5.25" fill="#E6E6FA" stroke="#E6E6FA" stroke-width="1.5"/>
<path d="M143 50.917C145.838 50.441 148 47.973 148 45V35.25C148 30.6937 144.306 27 139.75 27H103V30H139.75C142.649 30 145 32.3505 145 35.25V45C145 46.3062 144.165 47.4175 143 47.8293V50.917Z" fill="#2F014C"/>
<path d="M105.787 31.5C106.421 31.5 106.987 31.1014 107.2 30.5043C107.413 29.9072 107.228 29.2405 106.737 28.8391L88.8813 14.2297C85.9334 11.8178 82.2418 10.5 78.4329 10.5H68C65.5147 10.5 63.5 12.5147 63.5 15V27C63.5 29.4853 65.5147 31.5 68 31.5H105.787Z" fill="#DDA0DD" stroke="#2F014C" stroke-width="3" stroke-linejoin="round"/>
<path d="M103 25.5H100.75C99.5074 25.5 98.5 26.5074 98.5 27.75V34.25C98.5 35.4926 99.5074 36.5 100.75 36.5H103C105.485 36.5 107.5 34.4853 107.5 32V30C107.5 27.5147 105.485 25.5 103 25.5Z" fill="#E6E6FA" stroke="#2F014C" stroke-width="3"/>
<path d="M143 46.5H124C121.515 46.5 119.5 48.5147 119.5 51V60C119.5 62.4853 121.515 64.5 124 64.5H143C145.485 64.5 147.5 62.4853 147.5 60V51C147.5 48.5147 145.485 46.5 143 46.5Z" fill="#E6E6FA" stroke="#2F014C" stroke-width="3"/>
<rect x="101" y="42" width="36" height="36" rx="18" fill="#2F014C"/>
<rect x="104" y="45" width="30" height="30" rx="15" fill="#663399"/>
<rect x="110" y="51" width="18" height="18" rx="9" fill="#2F014C"/>
<rect x="113.75" y="54.75" width="10.5" height="10.5" rx="5.25" fill="#E6E6FA" stroke="#E6E6FA" stroke-width="1.5"/>
<rect x="65" y="36" width="9" height="3" rx="1.5" fill="#2F014C"/>
<rect x="32" y="36" width="9" height="3" rx="1.5" fill="#2F014C"/>
<path d="M23 0H21.3541C19.0814 0 17.0038 1.28402 15.9875 3.31672L5.48749 24.3167C3.49279 28.3061 6.39376 33 10.8541 33H12V30H10.8541C8.62391 30 7.17342 27.6531 8.17077 25.6584L18.6708 4.65836C19.1789 3.64201 20.2177 3 21.3541 3H23V0Z" fill="#2F014C"/>
<path d="M8 29.3618L10.1153 28.7978C10.9457 28.5763 11.6412 28.0094 12.0255 27.2407L23.9875 3.31672C24.9508 1.3901 26.8675 0.13606 29 0.0104141V3.02091C28.6287 3.06497 28.2734 3.17758 27.9502 3.34877C27.4077 3.63607 26.9558 4.08834 26.6708 4.65836L14.7088 28.5823C13.9401 30.1197 12.549 31.2536 10.8882 31.6965L8.22701 32.4061C8.14993 32.4267 8.07422 32.4501 8 32.4763V29.3618Z" fill="#2F014C"/>
<path d="M142 46.5L144.25 46.5C145.493 46.5 146.5 45.4926 146.5 44.25L146.5 37.75C146.5 36.5074 145.493 35.5 144.25 35.5L142 35.5C139.515 35.5 137.5 37.5147 137.5 40L137.5 42C137.5 44.4853 139.515 46.5 142 46.5Z" fill="#F8F8FF" stroke="#2F014C" stroke-width="3"/>
</svg>
