<svg width="54" height="54" viewBox="0 0 54 54" fill="none" xmlns="http://www.w3.org/2000/svg">
<path d="M35.6985 1.5L18.3015 1.5C17.108 1.5 15.9634 1.97411 15.1195 2.81802L2.81802 15.1195C1.97411 15.9634 1.5 17.108 1.5 18.3015L1.5 35.6985C1.5 36.892 1.97411 38.0366 2.81802 38.8805L15.1195 51.182C15.9634 52.0259 17.108 52.5 18.3015 52.5H35.6985C36.892 52.5 38.0366 52.0259 38.8805 51.182L51.182 38.8805C52.0259 38.0366 52.5 36.892 52.5 35.6985V18.3015C52.5 17.108 52.0259 15.9635 51.182 15.1195L38.8805 2.81802C38.0366 1.97411 36.892 1.5 35.6985 1.5Z" fill="#FF1493" stroke="#E6E6FA" stroke-width="3"/>
<path d="M11.4913 21.28C12.4726 21.28 13.3366 21.4347 14.0833 21.744C14.8406 22.0427 15.4966 22.4853 16.0513 23.072L14.7233 24.848C14.2646 24.368 13.7686 24.0107 13.2353 23.776C12.7126 23.5307 12.1153 23.408 11.4433 23.408C11.0486 23.408 10.7286 23.4507 10.4833 23.536C10.238 23.6213 10.062 23.7387 9.95531 23.888C9.84865 24.0373 9.79531 24.208 9.79531 24.4C9.79531 24.624 9.89665 24.816 10.0993 24.976C10.3126 25.1253 10.654 25.2533 11.1233 25.36L12.8993 25.76C13.9553 26.0053 14.7286 26.3627 15.2193 26.832C15.71 27.3013 15.9553 27.9253 15.9553 28.704C15.9553 29.4507 15.7633 30.0853 15.3793 30.608C14.9953 31.12 14.4673 31.5093 13.7953 31.776C13.1233 32.032 12.3553 32.16 11.4913 32.16C10.7873 32.16 10.1153 32.0853 9.47531 31.936C8.83531 31.776 8.25931 31.552 7.74731 31.264C7.23531 30.976 6.80331 30.6453 6.45131 30.272L7.77931 28.432C8.04598 28.7413 8.37131 29.0187 8.75531 29.264C9.14998 29.4987 9.57665 29.6853 10.0353 29.824C10.5046 29.9627 10.9793 30.032 11.4593 30.032C11.8326 30.032 12.142 29.9947 12.3873 29.92C12.6433 29.8453 12.83 29.7333 12.9473 29.584C13.0646 29.4347 13.1233 29.2587 13.1233 29.056C13.1233 28.832 13.0433 28.6453 12.8833 28.496C12.7233 28.336 12.4193 28.2027 11.9713 28.096L10.0193 27.664C9.42198 27.5253 8.88865 27.344 8.41931 27.12C7.96065 26.8853 7.59798 26.576 7.33131 26.192C7.06465 25.7973 6.93131 25.3067 6.93131 24.72C6.93131 24.0587 7.11265 23.472 7.47531 22.96C7.83798 22.4373 8.36065 22.0267 9.04331 21.728C9.72598 21.4293 10.542 21.28 11.4913 21.28ZM26.3527 21.44V23.568H22.9127V32H20.1607V23.568H16.7047V21.44H26.3527ZM32.2243 21.28C33.291 21.28 34.2083 21.4987 34.9763 21.936C35.755 22.3627 36.3523 22.9813 36.7683 23.792C37.1843 24.6027 37.3923 25.5787 37.3923 26.72C37.3923 27.8613 37.1843 28.8373 36.7683 29.648C36.3523 30.4587 35.755 31.0827 34.9763 31.52C34.2083 31.9467 33.291 32.16 32.2243 32.16C31.1576 32.16 30.235 31.9467 29.4563 31.52C28.6776 31.0827 28.0803 30.4587 27.6643 29.648C27.2483 28.8373 27.0403 27.8613 27.0403 26.72C27.0403 25.5787 27.2483 24.6027 27.6643 23.792C28.0803 22.9813 28.6776 22.3627 29.4563 21.936C30.235 21.4987 31.1576 21.28 32.2243 21.28ZM32.2243 23.44C31.7123 23.44 31.2803 23.5627 30.9283 23.808C30.5763 24.0533 30.3096 24.4213 30.1283 24.912C29.947 25.392 29.8563 25.9947 29.8563 26.72C29.8563 27.4347 29.947 28.0373 30.1283 28.528C30.3096 29.0187 30.5763 29.3867 30.9283 29.632C31.2803 29.8773 31.7123 30 32.2243 30C32.7363 30 33.163 29.8773 33.5043 29.632C33.8563 29.3867 34.123 29.0187 34.3043 28.528C34.4856 28.0373 34.5763 27.4347 34.5763 26.72C34.5763 25.9947 34.4856 25.392 34.3043 24.912C34.123 24.4213 33.8563 24.0533 33.5043 23.808C33.163 23.5627 32.7363 23.44 32.2243 23.44ZM44.1332 21.44C44.9972 21.44 45.7332 21.5787 46.3412 21.856C46.9492 22.1333 47.4132 22.5333 47.7332 23.056C48.0532 23.5787 48.2132 24.2133 48.2132 24.96C48.2132 25.7067 48.0532 26.3413 47.7332 26.864C47.4132 27.3867 46.9492 27.7867 46.3412 28.064C45.7332 28.3413 44.9972 28.48 44.1332 28.48H42.0372V32H39.2852V21.44H44.1332ZM43.7012 26.416C44.2772 26.416 44.7092 26.2987 44.9972 26.064C45.2959 25.8187 45.4452 25.4507 45.4452 24.96C45.4452 24.4693 45.2959 24.1067 44.9972 23.872C44.7092 23.6267 44.2772 23.504 43.7012 23.504H42.0372V26.416H43.7012Z" fill="#E6E6FA"/>
</svg>
