<svg width="81" height="177" viewBox="0 0 81 177" fill="none" xmlns="http://www.w3.org/2000/svg">
<path d="M21.3015 7.5C20.9037 7.5 20.5222 7.65804 20.2409 7.93934L7.93934 20.2409C7.65804 20.5222 7.5 20.9037 7.5 21.3015V38.6985C7.5 39.0963 7.65804 39.4778 7.93934 39.7592M21.3015 7.5L7.93934 39.7592M21.3015 7.5H38.6985C39.0963 7.5 39.4778 7.65804 39.7591 7.93934L52.0607 20.2409C52.342 20.5222 52.5 20.9037 52.5 21.3015V38.6985C52.5 39.0963 52.342 39.4778 52.0607 39.7591L39.7592 52.0607C39.4778 52.342 39.0963 52.5 38.6985 52.5H21.3015C20.9037 52.5 20.5222 52.342 20.2409 52.0607L7.93934 39.7592M21.3015 7.5L7.93934 39.7592M38.6985 1.5H21.3015C19.3124 1.5 17.4047 2.29018 15.9982 3.6967L3.6967 15.9982C2.29018 17.4047 1.5 19.3124 1.5 21.3015V38.6985C1.5 40.6876 2.29018 42.5953 3.6967 44.0018L15.9982 56.3033C17.4047 57.7098 19.3124 58.5 21.3015 58.5H38.6985C40.6876 58.5 42.5953 57.7098 44.0018 56.3033L56.3033 44.0018C57.7098 42.5953 58.5 40.6876 58.5 38.6985V21.3015C58.5 19.3124 57.7098 17.4047 56.3033 15.9982L44.0018 3.6967C42.5953 2.29018 40.6876 1.5 38.6985 1.5Z" fill="#E6E6FA" stroke="#2F014C" stroke-width="3"/>
<path d="M19.1802 6.87868C19.7428 6.31607 20.5059 6 21.3015 6L38.6985 6C39.4941 6 40.2572 6.31607 40.8198 6.87868L53.1213 19.1802C53.6839 19.7428 54 20.5059 54 21.3015V38.6985C54 39.4941 53.6839 40.2572 53.1213 40.8198L40.8198 53.1213C40.2572 53.6839 39.4941 54 38.6985 54H21.3015C20.5059 54 19.7428 53.6839 19.1802 53.1213L6.87868 40.8198C6.31607 40.2572 6 39.4941 6 38.6985L6 21.3015C6 20.5059 6.31607 19.7428 6.87868 19.1802L19.1802 6.87868Z" fill="#FF1493"/>
<path d="M14.4913 24.28C15.4726 24.28 16.3366 24.4347 17.0833 24.744C17.8406 25.0427 18.4966 25.4853 19.0513 26.072L17.7233 27.848C17.2646 27.368 16.7686 27.0107 16.2353 26.776C15.7126 26.5307 15.1153 26.408 14.4433 26.408C14.0486 26.408 13.7286 26.4507 13.4833 26.536C13.238 26.6213 13.062 26.7387 12.9553 26.888C12.8486 27.0373 12.7953 27.208 12.7953 27.4C12.7953 27.624 12.8966 27.816 13.0993 27.976C13.3126 28.1253 13.654 28.2533 14.1233 28.36L15.8993 28.76C16.9553 29.0053 17.7286 29.3627 18.2193 29.832C18.71 30.3013 18.9553 30.9253 18.9553 31.704C18.9553 32.4507 18.7633 33.0853 18.3793 33.608C17.9953 34.12 17.4673 34.5093 16.7953 34.776C16.1233 35.032 15.3553 35.16 14.4913 35.16C13.7873 35.16 13.1153 35.0853 12.4753 34.936C11.8353 34.776 11.2593 34.552 10.7473 34.264C10.2353 33.976 9.80331 33.6453 9.45131 33.272L10.7793 31.432C11.046 31.7413 11.3713 32.0187 11.7553 32.264C12.15 32.4987 12.5766 32.6853 13.0353 32.824C13.5046 32.9627 13.9793 33.032 14.4593 33.032C14.8326 33.032 15.142 32.9947 15.3873 32.92C15.6433 32.8453 15.83 32.7333 15.9473 32.584C16.0646 32.4347 16.1233 32.2587 16.1233 32.056C16.1233 31.832 16.0433 31.6453 15.8833 31.496C15.7233 31.336 15.4193 31.2027 14.9713 31.096L13.0193 30.664C12.422 30.5253 11.8886 30.344 11.4193 30.12C10.9606 29.8853 10.598 29.576 10.3313 29.192C10.0646 28.7973 9.93131 28.3067 9.93131 27.72C9.93131 27.0587 10.1126 26.472 10.4753 25.96C10.838 25.4373 11.3606 25.0267 12.0433 24.728C12.726 24.4293 13.542 24.28 14.4913 24.28ZM29.3527 24.44V26.568H25.9127V35H23.1607V26.568H19.7047V24.44H29.3527ZM35.2243 24.28C36.291 24.28 37.2083 24.4987 37.9763 24.936C38.755 25.3627 39.3523 25.9813 39.7683 26.792C40.1843 27.6027 40.3923 28.5787 40.3923 29.72C40.3923 30.8613 40.1843 31.8373 39.7683 32.648C39.3523 33.4587 38.755 34.0827 37.9763 34.52C37.2083 34.9467 36.291 35.16 35.2243 35.16C34.1576 35.16 33.235 34.9467 32.4563 34.52C31.6776 34.0827 31.0803 33.4587 30.6643 32.648C30.2483 31.8373 30.0403 30.8613 30.0403 29.72C30.0403 28.5787 30.2483 27.6027 30.6643 26.792C31.0803 25.9813 31.6776 25.3627 32.4563 24.936C33.235 24.4987 34.1576 24.28 35.2243 24.28ZM35.2243 26.44C34.7123 26.44 34.2803 26.5627 33.9283 26.808C33.5763 27.0533 33.3096 27.4213 33.1283 27.912C32.947 28.392 32.8563 28.9947 32.8563 29.72C32.8563 30.4347 32.947 31.0373 33.1283 31.528C33.3096 32.0187 33.5763 32.3867 33.9283 32.632C34.2803 32.8773 34.7123 33 35.2243 33C35.7363 33 36.163 32.8773 36.5043 32.632C36.8563 32.3867 37.123 32.0187 37.3043 31.528C37.4856 31.0373 37.5763 30.4347 37.5763 29.72C37.5763 28.9947 37.4856 28.392 37.3043 27.912C37.123 27.4213 36.8563 27.0533 36.5043 26.808C36.163 26.5627 35.7363 26.44 35.2243 26.44ZM47.1332 24.44C47.9972 24.44 48.7332 24.5787 49.3412 24.856C49.9492 25.1333 50.4132 25.5333 50.7332 26.056C51.0532 26.5787 51.2132 27.2133 51.2132 27.96C51.2132 28.7067 51.0532 29.3413 50.7332 29.864C50.4132 30.3867 49.9492 30.7867 49.3412 31.064C48.7332 31.3413 47.9972 31.48 47.1332 31.48H45.0372V35H42.2852V24.44H47.1332ZM46.7012 29.416C47.2772 29.416 47.7092 29.2987 47.9972 29.064C48.2959 28.8187 48.4452 28.4507 48.4452 27.96C48.4452 27.4693 48.2959 27.1067 47.9972 26.872C47.7092 26.6267 47.2772 26.504 46.7012 26.504H45.0372V29.416H46.7012Z" fill="#E6E6FA"/>
<path d="M27 58.5H25.5V60V174V175.5H27H33H34.5V174V60V58.5H33H27Z" fill="#E6E6FA" stroke="#2F014C" stroke-width="3"/>
<path d="M54.4586 100.5H47.5414C45.3416 100.5 43.4643 102.09 43.1026 104.26L32.1026 170.26C31.6455 173.003 33.7607 175.5 36.5414 175.5H65.4586C68.2393 175.5 70.3545 173.003 69.8974 170.26L58.8974 104.26C58.5358 102.09 56.6584 100.5 54.4586 100.5Z" fill="#FF7F50" stroke="#2F014C" stroke-width="3"/>
<rect x="22.5" y="166.5" width="57" height="9" rx="3" fill="#FF7F50" stroke="#2F014C" stroke-width="3"/>
<mask id="mask0_30_1449" style="mask-type:alpha" maskUnits="userSpaceOnUse" x="33" y="102" width="36" height="72">
<path d="M44.5822 104.507C44.8233 103.06 46.0749 102 47.5414 102H54.4586C55.9251 102 57.1767 103.06 57.4178 104.507L68.4178 170.507C68.7226 172.335 67.3124 174 65.4586 174H36.5414C34.6876 174 33.2774 172.335 33.5822 170.507L44.5822 104.507Z" fill="#FF7F50"/>
</mask>
<g mask="url(#mask0_30_1449)">
<path fill-rule="evenodd" clip-rule="evenodd" d="M69 111H33V120H69V111ZM33 129H69V138H33V129ZM33 147H69V156H33V147Z" fill="#E6E6FA"/>
</g>
</svg>
