<svg width="171" height="85" viewBox="0 0 171 85" fill="none" xmlns="http://www.w3.org/2000/svg">
<path d="M64.2351 3.55132L62.2351 9.55132C61.5876 11.4939 63.0335 13.5 65.0811 13.5H84.9189C86.9665 13.5 88.4124 11.4939 87.7649 9.55132L85.7649 3.55132C85.3566 2.32629 84.2102 1.5 82.9189 1.5H67.0811C65.7898 1.5 64.6434 2.32629 64.2351 3.55132Z" fill="#FFA585" stroke="#470B00" stroke-width="3"/>
<path d="M18 76C18 74.3431 19.3431 73 21 73H159C160.657 73 162 74.3431 162 76V82C162 83.6569 160.657 85 159 85H21C19.3431 85 18 83.6569 18 82V76Z" fill="#2F014C"/>
<rect x="1.5" y="28.5" width="15" height="33" rx="4.5" fill="#663399" stroke="#2F014C" stroke-width="3"/>
<path d="M16.5062 41.8642L16.5 41.932V42V67C16.5 71.1421 19.8579 74.5 24 74.5H156C160.142 74.5 163.5 71.1421 163.5 67V48C163.5 43.8579 160.142 40.5 156 40.5H121.051L115.41 24.9874L110.846 12.4369C109.768 9.47301 106.951 7.5 103.797 7.5H26.4793C22.6003 7.5 19.3613 10.4579 19.0101 14.321L16.5062 41.8642Z" fill="#FF6347" stroke="#470B00" stroke-width="3"/>
<rect x="169.5" y="47" width="26" height="3" rx="1.5" transform="rotate(90 169.5 47)" fill="#470B00"/>
<rect x="168" y="61" width="5" height="3" rx="1.5" transform="rotate(-180 168 61)" fill="#470B00"/>
<path d="M82.5 40.5H107.126C110.249 40.5 112.423 37.3966 111.355 34.4617L104.808 16.4617C104.161 14.6836 102.471 13.5 100.579 13.5H82.5C80.0147 13.5 78 15.5147 78 18V36C78 38.4853 80.0147 40.5 82.5 40.5Z" fill="#DDA0DD" stroke="#470B00" stroke-width="3"/>
<path d="M49.5 40.5H67.5C69.9853 40.5 72 38.4853 72 36V18C72 15.5147 69.9853 13.5 67.5 13.5H49.5C47.0147 13.5 45 15.5147 45 18V36C45 38.4853 47.0147 40.5 49.5 40.5Z" fill="#DDA0DD" stroke="#470B00" stroke-width="3"/>
<path d="M29.0549 40.5H34.5C36.9853 40.5 39 38.4853 39 36V18C39 15.5147 36.9853 13.5 34.5 13.5H30.6899C28.3623 13.5 26.4189 15.2749 26.2083 17.5929L24.5733 35.5929C24.334 38.2281 26.4089 40.5 29.0549 40.5Z" fill="#DDA0DD" stroke="#470B00" stroke-width="3"/>
<path d="M15 73H168V79H15V73Z" fill="#7A2900"/>
<path d="M110 32.5H107.75C106.507 32.5 105.5 33.5074 105.5 34.75V41.25C105.5 42.4926 106.507 43.5 107.75 43.5H110C112.485 43.5 114.5 41.4853 114.5 39V37C114.5 34.5147 112.485 32.5 110 32.5Z" fill="#FF6347" stroke="#470B00" stroke-width="3"/>
<path d="M159 59.5L161.25 59.5C162.493 59.5 163.5 58.4926 163.5 57.25L163.5 50.75C163.5 49.5074 162.493 48.5 161.25 48.5L159 48.5C156.515 48.5 154.5 50.5147 154.5 53L154.5 55C154.5 57.4853 156.515 59.5 159 59.5Z" fill="#FFA585" stroke="#470B00" stroke-width="3"/>
<rect x="81" y="46" width="9" height="3" rx="1.5" fill="#470B00"/>
<rect x="48" y="46" width="9" height="3" rx="1.5" fill="#470B00"/>
<path d="M30.2025 55.5C27.0487 55.5 24.2319 57.473 23.1541 60.4369L19.1312 71.5H15.75C14.5074 71.5 13.5 72.5074 13.5 73.75V78.25C13.5 79.4926 14.5074 80.5 15.75 80.5H20.1818C23.3356 80.5 26.1525 78.527 27.2302 75.5631L31.2532 64.5H52.7468L56.7697 75.5631C57.8475 78.527 60.6644 80.5 63.8182 80.5H110.182C113.336 80.5 116.152 78.527 117.23 75.5631L121.253 64.5L142.747 64.5L146.77 75.5631C147.847 78.527 150.664 80.5 153.818 80.5H167.25C168.493 80.5 169.5 79.4926 169.5 78.25V73.75C169.5 72.5074 168.493 71.5 167.25 71.5H154.869L150.846 60.4369C149.768 57.473 146.951 55.5 143.797 55.5H120.203C117.049 55.5 114.232 57.473 113.154 60.4369L109.131 71.5H64.8688L60.8459 60.4369C59.7681 57.473 56.9512 55.5 53.7974 55.5H30.2025Z" fill="#663399" stroke="#2F014C" stroke-width="3"/>
<path d="M23.25 78V78.75H24H60H60.75V78C60.75 67.6447 52.3553 59.25 42 59.25C31.6447 59.25 23.25 67.6447 23.25 78Z" fill="#2F014C" stroke="#2F014C" stroke-width="1.5"/>
<path d="M113.25 78V78.75H114H150H150.75V78C150.75 67.6447 142.355 59.25 132 59.25C121.645 59.25 113.25 67.6447 113.25 78Z" fill="#2F014C" stroke="#2F014C" stroke-width="1.5"/>
<circle cx="42" cy="78" r="6" fill="#E6E6FA"/>
<circle cx="132" cy="78" r="6" fill="#E6E6FA"/>
</svg>
