<svg width="480" height="144" viewBox="0 0 480 144" fill="none" xmlns="http://www.w3.org/2000/svg">
<path d="M468 145.5H469.5V144V48C469.5 27.2893 452.711 10.5 432 10.5H431.883H431.767H431.65H431.533H431.415H431.298H431.18H431.062H430.944H430.826H430.707H430.589H430.47H430.351H430.232H430.113H429.994H429.874H429.754H429.635H429.514H429.394H429.274H429.154H429.033H428.912H428.791H428.67H428.549H428.428H428.306H428.184H428.063H427.941H427.819H427.697H427.574H427.452H427.329H427.207H427.084H426.961H426.838H426.715H426.591H426.468H426.345H426.221H426.097H425.973H425.849H425.725H425.601H425.477H425.353H425.228H425.104H424.979H424.854H424.729H424.604H424.479H424.354H424.229H424.104H423.978H423.853H423.728H423.602H423.476H423.351H423.225H423.099H422.973H422.847H422.721H422.595H422.468H422.342H422.216H422.089H421.963H421.836H421.71H421.583H421.456H421.33H421.203H421.076H420.949H420.822H420.695H420.568H420.441H420.314H420.187H420.06H419.933H419.806H419.679H419.551H419.424H419.297H419.17H419.042H418.915H418.788H418.66H418.533H418.405H418.278H418.151H418.023H417.896H417.768H417.641H417.513H417.386H417.259H417.131H417.004H416.876H416.749H416.622H416.494H416.367H416.239H416.112H415.985H415.858H415.73H415.603H415.476H415.349H415.222H415.094H414.967H414.84H414.713H414.586H414.459H414.332H414.206H414.079H413.952H413.825H413.699H413.572H413.445H413.319H413.192H413.066H412.94H412.813H412.687H412.561H412.435H412.309H412.183H412.057H411.931H411.805H411.68H411.554H411.429H411.303H411.178H411.053H410.927H410.802H410.677H410.552H410.428H410.303H410.178H410.054H409.929H409.805H409.681H409.556H409.432H409.308H409.185H409.061H408.937H408.814H408.69H408.567H408.444H408.321H408.198H408.075H407.953H407.83H407.708H407.585H407.463H407.341H407.219H407.097H406.976H406.854H406.733H406.612H406.491H406.37H406.249H406.128H406.008H405.888H405.767H405.647H405.528H405.408H405.288H405.169H405.05H404.931H404.812H404.693H404.574H404.456H404.338H404.22H404.102H403.984H403.867H403.749H403.632H403.515H403.399H403.282H403.166H403.049H402.933H402.818H402.702H402.586H402.471H402.356H402.241H402.127H402.012H401.898H401.784H401.67H401.557H401.443H401.33H401.217H401.104H400.992H400.88H400.768H400.656H400.544H400.433H400.322H400.211H400.1H399.99H399.879H399.769H399.66H399.55H399.441H399.332H399.223H399.114H399.006H398.898H398.79H398.683H398.576H398.469H398.362H398.255H398.149H398.043H397.937H397.832H397.727H397.622H397.517H397.413H397.309H397.205H397.102H396.998H396.895H396.793H396.69H396.588H396.486H396.385H396.283H396.183H396.082H395.982H395.881H395.782H395.682H395.583H395.484H395.386H395.287H395.189H395.092H394.995H394.898H394.801H394.704H394.608H394.513H394.417H394.322H394.227H394.133H394.039H393.945H393.852H393.759H393.666H393.573H393.481H393.389H393.298H393.207H393.116H393.026H392.936H392.846H392.757H392.668H392.579H392.491H392.403H392.315H392.228H392.141H392.055H391.969H391.883H391.798H391.713H391.628H391.544H391.46H391.376H391.293H391.211H391.128H391.046H390.965H390.883H390.803H390.722H390.642H390.563H390.483H390.404H390.326H390.248H390.17H390.093H390.016H389.94H389.864H389.788H389.713H389.638H389.564H389.49H389.416H389.343H389.27H389.198H389.126H389.055H388.984H388.913H388.843H388.773H388.704H388.635H388.567H388.499H388.431H388.364H388.298H388.231H388.166H388.1H388.035H387.971H387.907H387.844H387.781H387.718H387.656H387.594H387.533H387.472H387.412H387.352H387.293H387.234H387.176H387.118H387.06H387.003H386.947H386.891H386.835H386.78H386.726H386.672H386.618H386.565H386.513H386.461H386.409H386.358H386.307H386.257H386.208H386.159H386.11H386.062H386.014H385.967H385.921H385.875H385.829H385.784H385.74H385.696H385.652H385.609H385.567H385.525H385.484H385.443H385.403H385.363H385.324H385.285H385.247H385.209H385.172H385.136H385.1H385.064H385.03H384.995H384.962H384.928H384.896H384.864H384.832H384.801H384.771H384.741H384.711H384.683H384.655H384.627H384.6H384.573H384.548H384.522H384.498H384.473H384.45H384.427H384.404H384.383H384.361H384.341H384.321H384.301H384.282H384.264H384.246H384.229H384.213H384.197H384.182H384.167H384.153H384.139H384.127H384.114H384.103H384.092H384.081H384.071H384.062H384.054H384.046H384.039H384.032H384.026H384.02H384.016H384.012H384.008H384.005H384.003H384.001H384C384 10.5 384 10.5 384 12V10.5H382.5V12V144V145.5H384H468Z" fill="#DDA0DD" stroke="#2F014C" stroke-width="3"/>
<g opacity="0.5">
<mask id="mask0_0_1" style="mask-type:alpha" maskUnits="userSpaceOnUse" x="372" y="12" width="96" height="132">
<path fill-rule="evenodd" clip-rule="evenodd" d="M468 144H372V12C372 12 412.118 12 432 12C451.882 12 468 28.1178 468 48V144Z" fill="#DDA0DD"/>
</mask>
<g mask="url(#mask0_0_1)">
<line x1="468" y1="115.5" x2="372" y2="115.5" stroke="#A16ABC" stroke-width="3"/>
<line x1="468" y1="133.5" x2="372" y2="133.5" stroke="#A16ABC" stroke-width="3"/>
<line x1="468" y1="96.5" x2="372" y2="96.5" stroke="#A16ABC" stroke-width="3"/>
<line x1="468" y1="78.5" x2="372" y2="78.5" stroke="#A16ABC" stroke-width="3"/>
<line x1="468" y1="59.5" x2="372" y2="59.5" stroke="#A16ABC" stroke-width="3"/>
<line x1="468" y1="41.5" x2="372" y2="41.5" stroke="#A16ABC" stroke-width="3"/>
<line x1="468" y1="22.5" x2="372" y2="22.5" stroke="#A16ABC" stroke-width="3"/>
</g>
</g>
<path d="M-97.4235 143.527C-97.5754 143.984 -97.4984 144.487 -97.2164 144.878C-96.9345 145.268 -96.4819 145.5 -96 145.5H480C480.482 145.5 480.935 145.268 481.217 144.877C481.499 144.486 481.576 143.983 481.423 143.526L458.791 75.6405C457.77 72.5781 454.904 70.5126 451.676 70.5126H412.324C410.387 70.5126 408.668 69.2733 408.055 67.4359L386.791 3.65315C385.77 0.590775 382.904 -1.47478 379.676 -1.47478H364.324C362.387 -1.47478 360.668 -2.7141 360.055 -4.55151L314.787 -140.332C313.768 -143.388 310.912 -145.452 307.691 -145.46L288.004 -145.508H288H260.324C258.387 -145.508 256.668 -146.748 256.055 -148.585L242.791 -188.372C241.77 -191.434 238.904 -193.5 235.676 -193.5H196.324C193.096 -193.5 190.23 -191.434 189.209 -188.372L187.945 -184.579C187.332 -182.741 185.613 -181.502 183.676 -181.502H160.324C157.096 -181.502 154.23 -179.437 153.209 -176.374L143.21 -146.38C143.036 -145.86 142.549 -145.508 142 -145.508H76.3243C73.0962 -145.508 70.2303 -143.443 69.2093 -140.38L47.9447 -76.5978C47.3321 -74.7603 45.6125 -73.521 43.6757 -73.521H4.32432C1.09624 -73.521 -1.76971 -71.4555 -2.79068 -68.3931L-24.0553 -4.61038C-24.6679 -2.77296 -26.3875 -1.53363 -28.3243 -1.53363H-43.6709C-46.9056 -1.53363 -49.7747 0.550919 -50.7925 3.61333C-59.5094 29.8402 -66.4653 50.6718 -73.4215 71.5044C-80.7385 93.4174 -88.0559 115.332 -97.4235 143.527Z" fill="#4B0082" stroke="#2F014C" stroke-width="3" stroke-linejoin="round"/>
<mask id="mask1_0_1" style="mask-type:alpha" maskUnits="userSpaceOnUse" x="-96" y="-192" width="576" height="336">
<path d="M-49.3691 4.08641C-67.2674 57.9376 -77.7161 88.9675 -96 144H480L457.368 76.1149C456.551 73.665 454.258 72.0126 451.676 72.0126H412.324C409.742 72.0126 407.449 70.3602 406.632 67.9103L385.368 4.12755C384.551 1.67764 382.258 0.0252075 379.676 0.0252075H364.324C361.742 0.0252075 359.449 -1.62721 358.632 -4.07712L313.364 -139.858C312.549 -142.303 310.264 -143.954 307.687 -143.96L288 -144.008H260.324C257.742 -144.008 255.449 -145.661 254.632 -148.111L241.368 -187.898C240.551 -190.348 238.258 -192 235.676 -192H196.324C193.742 -192 191.449 -190.348 190.632 -187.898L189.368 -184.104C188.551 -181.655 186.258 -180.002 183.676 -180.002H160.324C157.742 -180.002 155.449 -178.35 154.632 -175.9L144.633 -145.906C144.255 -144.773 143.194 -144.008 142 -144.008H76.3243C73.7419 -144.008 71.4491 -142.356 70.6323 -139.906L49.3677 -76.1234C48.5509 -73.6735 46.2581 -72.021 43.6757 -72.021H4.32432C1.74185 -72.021 -0.550903 -70.3686 -1.36768 -67.9187L-22.6323 -4.13599C-23.4491 -1.68608 -25.7419 -0.0336456 -28.3243 -0.0336456H-43.6709C-46.2557 -0.0336456 -48.5539 1.63358 -49.3691 4.08641Z" fill="#4B0082"/>
</mask>
<g mask="url(#mask1_0_1)">
<path d="M529.369 -52.0864C547.267 -105.938 557.716 -136.968 576 -192L2.93741e-05 -192L22.6323 -124.115C23.4491 -121.665 25.7419 -120.013 28.3244 -120.013L67.6757 -120.013C70.2582 -120.013 72.5509 -118.36 73.3677 -115.91L94.6323 -52.1276C95.4491 -49.6777 97.7419 -48.0253 100.324 -48.0253L115.676 -48.0253C118.258 -48.0253 120.551 -46.3728 121.368 -43.9229L166.636 91.8578C167.451 94.3025 169.736 95.9538 172.313 95.9601L192 96.0084L219.676 96.0084C222.258 96.0084 224.551 97.6608 225.368 100.111L238.632 139.898C239.449 142.348 241.742 144 244.324 144L283.676 144C286.258 144 288.551 142.348 289.368 139.898L290.632 136.104C291.449 133.655 293.742 132.002 296.324 132.002L319.676 132.002C322.258 132.002 324.551 130.35 325.368 127.9L335.367 97.9057C335.745 96.7726 336.806 96.0084 338 96.0084L403.676 96.0084C406.258 96.0084 408.551 94.356 409.368 91.9061L430.632 28.1233C431.449 25.6734 433.742 24.021 436.324 24.021L475.676 24.021C478.258 24.021 480.551 22.3686 481.368 19.9187L502.632 -43.864C503.449 -46.3139 505.742 -47.9664 508.324 -47.9664L523.671 -47.9664C526.256 -47.9664 528.554 -49.6336 529.369 -52.0864Z" fill="#2F014C" fill-opacity="0.5"/>
</g>
<path d="M72 145.5H73.5V144V48C73.5 27.2893 56.7107 10.5 36 10.5H35.8835H35.7672H35.6509H35.5347H35.4186H35.3026H35.1867H35.0708H34.9551H34.8394H34.7239H34.6084H34.493H34.3777H34.2625H34.1474H34.0324H33.9175H33.8027H33.688H33.5734H33.4589H33.3445H33.2301H33.1159H33.0018H32.8878H32.7739H32.66H32.5463H32.4327H32.3192H32.2058H32.0925H31.9793H31.8662H31.7532H31.6404H31.5276H31.4149H31.3024H31.1899H31.0776H30.9654H30.8532H30.7412H30.6293H30.5176H30.4059H30.2943H30.1829H30.0716H29.9603H29.8493H29.7383H29.6274H29.5167H29.406H29.2955H29.1851H29.0748H28.9647H28.8547H28.7447H28.635H28.5253H28.4157H28.3063H28.197H28.0878H27.9788H27.8699H27.7611H27.6524H27.5438H27.4354H27.3271H27.219H27.1109H27.003H26.8953H26.7876H26.6801H26.5727H26.4655H26.3584H26.2514H26.1446H26.0378H25.9313H25.8248H25.7185H25.6124H25.5063H25.4005H25.2947H25.1891H25.0836H24.9783H24.8731H24.768H24.6631H24.5584H24.4538H24.3493H24.2449H24.1408H24.0367H23.9328H23.8291H23.7255H23.622H23.5187H23.4155H23.3125H23.2096H23.1069H23.0044H22.902H22.7997H22.6976H22.5956H22.4939H22.3922H22.2907H22.1894H22.0882H21.9872H21.8863H21.7856H21.6851H21.5847H21.4844H21.3843H21.2844H21.1847H21.0851H20.9857H20.8864H20.7873H20.6883H20.5896H20.491H20.3925H20.2942H20.1961H20.0982H20.0004H19.9028H19.8053H19.7081H19.6109H19.514H19.4172H19.3206H19.2242H19.128H19.0319H18.936H18.8403H18.7447H18.6493H18.5541H18.4591H18.3642H18.2696H18.1751H18.0808H17.9866H17.8927H17.7989H17.7053H17.6119H17.5186H17.4256H17.3327H17.24H17.1475H17.0552H16.963H16.8711H16.7793H16.6878H16.5964H16.5052H16.4142H16.3233H16.2327H16.1422H16.052H15.9619H15.8721H15.7824H15.6929H15.6036H15.5145H15.4256H15.3369H15.2484H15.1601H15.0719H14.984H14.8963H14.8087H14.7214H14.6343H14.5474H14.4606H14.3741H14.2878H14.2016H14.1157H14.03H13.9445H13.8592H13.7741H13.6892H13.6045H13.52H13.4357H13.3516H13.2678H13.1841H13.1007H13.0174H12.9344H12.8516H12.769H12.6866H12.6044H12.5224H12.4407H12.3591H12.2778H12.1967H12.1158H12.0351H11.9547H11.8744H11.7944H11.7146H11.635H11.5557H11.4765H11.3976H11.3189H11.2404H11.1621H11.0841H11.0063H10.9287H10.8513H10.7742H10.6973H10.6206H10.5442H10.4679H10.3919H10.3162H10.2406H10.1653H10.0902H10.0154H9.94073H9.86634H9.79218H9.71826H9.64457H9.57111H9.49789H9.4249H9.35215H9.27963H9.20736H9.13531H9.06351H8.99195H8.92062H8.84954H8.77869H8.70809H8.63773H8.56761H8.49773H8.42809H8.3587H8.28955H8.22065H8.15199H8.08358H8.01542H7.9475H7.87982H7.8124H7.74523H7.6783H7.61162H7.5452H7.47902H7.4131H7.34743H7.28201H7.21684H7.15193H7.08727H7.02286H6.95871H6.89482H6.83118H6.7678H6.70468H6.64181H6.5792H6.51685H6.45477H6.39294H6.33137H6.27006H6.20902H6.14824H6.08772H6.02746H5.96747H5.90774H5.84828H5.78908H5.73015H5.67148H5.61309H5.55496H5.4971H5.43951H5.38218H5.32513H5.26835H5.21184H5.1556H5.09964H5.04394H4.98852H4.93338H4.87851H4.82391H4.76959H4.71554H4.66177H4.60828H4.55507H4.50214H4.44948H4.3971H4.34501H4.29319H4.24166H4.1904H4.13943H4.08874H4.03834H3.98822H3.93838H3.88883H3.83956H3.79058H3.74189H3.69348H3.64536H3.59753H3.54999H3.50274H3.45578H3.40911H3.36272H3.31664H3.27084H3.22533H3.18012H3.13521H3.09058H3.04626H3.00222H2.95849H2.91505H2.8719H2.82906H2.78651H2.74426H2.70232H2.66067H2.61932H2.57827H2.53752H2.49708H2.45694H2.4171H2.37757H2.33834H2.29941H2.26079H2.22248H2.18447H2.14677H2.10938H2.07229H2.03552H1.99905H1.96289H1.92705H1.89151H1.85629H1.82138H1.78678H1.75249H1.71852H1.68486H1.65152H1.61849H1.58578H1.55338H1.5213H1.48954H1.4581H1.42697H1.39617H1.36568H1.33552H1.30567H1.27615H1.24695H1.21807H1.18951H1.16128H1.13338H1.10579H1.07853H1.0516H1.025H0.998719H0.972768H0.947146H0.921851H0.896886H0.87225H0.847945H0.823971H0.800328H0.777017H0.754038H0.731392H0.70908H0.687102H0.665459H0.64415H0.623178H0.602542H0.582243H0.562281H0.542657H0.523372H0.504426H0.48582H0.467553H0.449628H0.432043H0.414801H0.397901H0.381344H0.36513H0.349261H0.333736H0.318556H0.303722H0.289234H0.275093H0.2613H0.247854H0.234757H0.222009H0.20961H0.197562H0.185864H0.174517H0.163523H0.15288H0.142591H0.132655H0.123073H0.113845H0.104973H0.0964558H0.0882952H0.0804914H0.0730449H0.0659562H0.059226H0.0528547H0.046843H0.0411913H0.0359002H0.0309704H0.0264022H0.0221963H0.0183533H0.0148736H0.0117579H0.00900663H0.00662043H0.00459982H0.00294536H0.00165759H0.000737076H0.000184361C6.14843e-05 10.5 0 10.5 0 12V10.5H-1.5V12V144V145.5H0H72Z" fill="#DDA0DD" stroke="#2F014C" stroke-width="3"/>
<g opacity="0.5">
<mask id="mask2_0_1" style="mask-type:alpha" maskUnits="userSpaceOnUse" x="0" y="12" width="72" height="132">
<path fill-rule="evenodd" clip-rule="evenodd" d="M72 144H0V12C0 12 16.1178 12 36 12C55.8823 12 72 28.1178 72 48V144Z" fill="#DDA0DD"/>
</mask>
<g mask="url(#mask2_0_1)">
<line x1="72" y1="115.5" x2="-2.9771e-07" y2="115.5" stroke="#A16ABC" stroke-width="3"/>
<line x1="72" y1="133.5" x2="-2.9771e-07" y2="133.5" stroke="#A16ABC" stroke-width="3"/>
<line x1="72" y1="96.5" x2="-2.92441e-07" y2="96.5" stroke="#A16ABC" stroke-width="3"/>
<line x1="72" y1="78.5" x2="-2.56169e-07" y2="78.5" stroke="#A16ABC" stroke-width="3"/>
<line x1="72" y1="59.5" x2="-2.97028e-07" y2="59.5" stroke="#A16ABC" stroke-width="3"/>
<line x1="72" y1="41.5" x2="-3.02398e-07" y2="41.5" stroke="#A16ABC" stroke-width="3"/>
<line x1="72" y1="22.5" x2="-3.04798e-07" y2="22.5" stroke="#A16ABC" stroke-width="3"/>
</g>
</g>
<path d="M36 145.5H37.5V144V48C37.5 27.2893 20.7107 10.5 0 10.5C-20.7107 10.5 -37.5 27.2893 -37.5 48V144V145.5H-36H-25.5H-24H24H25.5H36ZM22.5 142.5H-22.5V48C-22.5 35.5736 -12.4264 25.5 0 25.5C12.4264 25.5 22.5 35.5736 22.5 48V142.5Z" fill="#E6E6FA" stroke="#2F014C" stroke-width="3"/>
<path d="M24 144V48C24 34.7452 13.2548 24 0 24C-13.2548 24 -24 34.7452 -24 48V144H24Z" fill="#2D004C"/>
<path d="M-24 48L24 144H-24V48Z" fill="#FF69B4" fill-opacity="0.5"/>
</svg>
