<svg width="582" height="579" viewBox="0 0 582 579" fill="none" xmlns="http://www.w3.org/2000/svg">
<path d="M303 239.941L327 215.941V239.941L303 215.941V239.941Z" stroke="#3D0167" stroke-width="3" stroke-linejoin="round"/>
<path d="M303 215.941L327 191.941V215.941L303 191.941V215.941Z" stroke="#3D0167" stroke-width="3" stroke-linejoin="round"/>
<path d="M303 191.941L327 167.941V191.941L303 167.941V191.941Z" stroke="#3D0167" stroke-width="3" stroke-linejoin="round"/>
<path d="M303 143.941L327 119.941V143.941L303 119.941V143.941Z" stroke="#3D0167" stroke-width="3" stroke-linejoin="round"/>
<path d="M303 167.941L327 143.941V167.941L303 143.941V167.941Z" stroke="#3D0167" stroke-width="3" stroke-linejoin="round"/>
<path d="M303 119.941L327 95.9411V119.941L303 95.9411V119.941Z" stroke="#3D0167" stroke-width="3" stroke-linejoin="round"/>
<path d="M303 95.9411L315 83.9411L327 95.9411" stroke="#3D0167" stroke-width="3" stroke-linejoin="round"/>
<path d="M315 77.9411L315 83.9411" stroke="#3D0167" stroke-width="3" stroke-linecap="round"/>
<path d="M315 71.9411C323.656 63.2855 324.318 49.6633 316.986 40.2479C315.968 38.9406 314.05 38.9498 312.879 40.1213L283.18 69.8198C282.009 70.9914 281.999 72.9095 283.307 73.9275C292.722 81.2589 306.344 80.5968 315 71.9411Z" fill="#3D0167" stroke="#3D0167" stroke-width="3"/>
<path d="M319.243 76.1838C321.586 73.8406 321.586 70.0416 319.243 67.6985L310.757 76.1838C313.1 78.5269 316.899 78.5269 319.243 76.1838Z" fill="#3D0167" stroke="#3D0167" stroke-width="3"/>
<path d="M207 287.941L231 263.941V287.941L207 263.941V287.941Z" stroke="#3D0167" stroke-width="3" stroke-linejoin="round"/>
<path d="M207 239.941L231 215.941V239.941L207 215.941V239.941Z" stroke="#3D0167" stroke-width="3" stroke-linejoin="round"/>
<path d="M207 263.941L231 239.941V263.941L207 239.941V263.941Z" stroke="#3D0167" stroke-width="3" stroke-linejoin="round"/>
<path d="M207 215.941L231 191.941V215.941L207 191.941V215.941Z" stroke="#3D0167" stroke-width="3" stroke-linejoin="round"/>
<path d="M207 191.941L219 179.941L231 191.941" stroke="#3D0167" stroke-width="3" stroke-linejoin="round"/>
<path d="M218.971 173.882L218.971 179.882" stroke="#3D0167" stroke-width="3" stroke-linecap="round"/>
<path d="M218.971 167.882C210.315 159.227 209.653 145.604 216.984 136.189C218.002 134.882 219.92 134.891 221.092 136.062L250.79 165.761C251.962 166.933 251.971 168.851 250.664 169.869C241.248 177.2 227.626 176.538 218.971 167.882Z" fill="#3D0167" stroke="#3D0167" stroke-width="3"/>
<path d="M214.728 172.125C212.385 169.782 212.385 165.983 214.728 163.64L223.213 172.125C220.87 174.468 217.071 174.468 214.728 172.125Z" fill="#3D0167" stroke="#3D0167" stroke-width="3"/>
<path d="M567 577.5H568.5V576V480C568.5 459.289 551.711 442.5 531 442.5H530.883H530.767H530.65H530.533H530.415H530.298H530.18H530.062H529.944H529.826H529.707H529.589H529.47H529.351H529.232H529.113H528.994H528.874H528.754H528.635H528.514H528.394H528.274H528.154H528.033H527.912H527.791H527.67H527.549H527.428H527.306H527.184H527.063H526.941H526.819H526.697H526.574H526.452H526.329H526.207H526.084H525.961H525.838H525.715H525.591H525.468H525.345H525.221H525.097H524.973H524.849H524.725H524.601H524.477H524.353H524.228H524.104H523.979H523.854H523.729H523.604H523.479H523.354H523.229H523.104H522.978H522.853H522.728H522.602H522.476H522.351H522.225H522.099H521.973H521.847H521.721H521.595H521.468H521.342H521.216H521.089H520.963H520.836H520.71H520.583H520.456H520.33H520.203H520.076H519.949H519.822H519.695H519.568H519.441H519.314H519.187H519.06H518.933H518.806H518.679H518.551H518.424H518.297H518.17H518.042H517.915H517.788H517.66H517.533H517.405H517.278H517.151H517.023H516.896H516.768H516.641H516.513H516.386H516.259H516.131H516.004H515.876H515.749H515.622H515.494H515.367H515.239H515.112H514.985H514.858H514.73H514.603H514.476H514.349H514.222H514.094H513.967H513.84H513.713H513.586H513.459H513.332H513.206H513.079H512.952H512.825H512.699H512.572H512.445H512.319H512.192H512.066H511.94H511.813H511.687H511.561H511.435H511.309H511.183H511.057H510.931H510.805H510.68H510.554H510.429H510.303H510.178H510.053H509.927H509.802H509.677H509.552H509.428H509.303H509.178H509.054H508.929H508.805H508.681H508.556H508.432H508.308H508.185H508.061H507.937H507.814H507.69H507.567H507.444H507.321H507.198H507.075H506.953H506.83H506.708H506.585H506.463H506.341H506.219H506.097H505.976H505.854H505.733H505.612H505.491H505.37H505.249H505.128H505.008H504.888H504.767H504.647H504.528H504.408H504.288H504.169H504.05H503.931H503.812H503.693H503.574H503.456H503.338H503.22H503.102H502.984H502.867H502.749H502.632H502.515H502.399H502.282H502.166H502.049H501.933H501.818H501.702H501.586H501.471H501.356H501.241H501.127H501.012H500.898H500.784H500.67H500.557H500.443H500.33H500.217H500.104H499.992H499.88H499.768H499.656H499.544H499.433H499.322H499.211H499.1H498.99H498.879H498.769H498.66H498.55H498.441H498.332H498.223H498.114H498.006H497.898H497.79H497.683H497.576H497.469H497.362H497.255H497.149H497.043H496.937H496.832H496.727H496.622H496.517H496.413H496.309H496.205H496.102H495.998H495.895H495.793H495.69H495.588H495.486H495.385H495.283H495.183H495.082H494.982H494.881H494.782H494.682H494.583H494.484H494.386H494.287H494.189H494.092H493.995H493.898H493.801H493.704H493.608H493.513H493.417H493.322H493.227H493.133H493.039H492.945H492.852H492.759H492.666H492.573H492.481H492.389H492.298H492.207H492.116H492.026H491.936H491.846H491.757H491.668H491.579H491.491H491.403H491.315H491.228H491.141H491.055H490.969H490.883H490.798H490.713H490.628H490.544H490.46H490.376H490.293H490.211H490.128H490.046H489.965H489.883H489.803H489.722H489.642H489.563H489.483H489.404H489.326H489.248H489.17H489.093H489.016H488.94H488.864H488.788H488.713H488.638H488.564H488.49H488.416H488.343H488.27H488.198H488.126H488.055H487.984H487.913H487.843H487.773H487.704H487.635H487.567H487.499H487.431H487.364H487.298H487.231H487.166H487.1H487.035H486.971H486.907H486.844H486.781H486.718H486.656H486.594H486.533H486.472H486.412H486.352H486.293H486.234H486.176H486.118H486.06H486.003H485.947H485.891H485.835H485.78H485.726H485.672H485.618H485.565H485.513H485.461H485.409H485.358H485.307H485.257H485.208H485.159H485.11H485.062H485.014H484.967H484.921H484.875H484.829H484.784H484.74H484.696H484.652H484.609H484.567H484.525H484.484H484.443H484.403H484.363H484.324H484.285H484.247H484.209H484.172H484.136H484.1H484.064H484.03H483.995H483.962H483.928H483.896H483.864H483.832H483.801H483.771H483.741H483.711H483.683H483.655H483.627H483.6H483.573H483.548H483.522H483.498H483.473H483.45H483.427H483.404H483.383H483.361H483.341H483.321H483.301H483.282H483.264H483.246H483.229H483.213H483.197H483.182H483.167H483.153H483.139H483.127H483.114H483.103H483.092H483.081H483.071H483.062H483.054H483.046H483.039H483.032H483.026H483.02H483.016H483.012H483.008H483.005H483.003H483.001H483C483 442.5 483 442.5 483 444V442.5H481.5V444V576V577.5H483H567Z" fill="#DDA0DD" stroke="#2F014C" stroke-width="3"/>
<g opacity="0.5">
<mask id="mask0_31_2261" style="mask-type:alpha" maskUnits="userSpaceOnUse" x="471" y="444" width="96" height="132">
<path fill-rule="evenodd" clip-rule="evenodd" d="M567 576H471V444C471 444 511.118 444 531 444C550.882 444 567 460.118 567 480V576Z" fill="#DDA0DD"/>
</mask>
<g mask="url(#mask0_31_2261)">
<line x1="567" y1="547.5" x2="471" y2="547.5" stroke="#A16ABC" stroke-width="3"/>
<line x1="567" y1="565.5" x2="471" y2="565.5" stroke="#A16ABC" stroke-width="3"/>
<line x1="567" y1="528.5" x2="471" y2="528.5" stroke="#A16ABC" stroke-width="3"/>
<line x1="567" y1="510.5" x2="471" y2="510.5" stroke="#A16ABC" stroke-width="3"/>
<line x1="567" y1="491.5" x2="471" y2="491.5" stroke="#A16ABC" stroke-width="3"/>
<line x1="567" y1="473.5" x2="471" y2="473.5" stroke="#A16ABC" stroke-width="3"/>
<line x1="567" y1="454.5" x2="471" y2="454.5" stroke="#A16ABC" stroke-width="3"/>
</g>
</g>
<path d="M1.57651 575.527C1.42457 575.984 1.5016 576.487 1.78357 576.878C2.06554 577.268 2.5181 577.5 3 577.5H579C579.482 577.5 579.935 577.268 580.217 576.877C580.499 576.486 580.576 575.983 580.423 575.526L557.791 507.641C556.77 504.578 553.904 502.513 550.676 502.513H511.324C509.387 502.513 507.668 501.273 507.055 499.436L485.791 435.653C484.77 432.591 481.904 430.525 478.676 430.525H463.324C461.387 430.525 459.668 429.286 459.055 427.448L413.787 291.668C412.768 288.612 409.912 286.548 406.691 286.54L387.004 286.492H387H359.324C357.387 286.492 355.668 285.252 355.055 283.415L341.791 243.628C340.77 240.566 337.904 238.5 334.676 238.5H295.324C292.096 238.5 289.23 240.566 288.209 243.628L286.945 247.421C286.332 249.259 284.613 250.498 282.676 250.498H259.324C256.096 250.498 253.23 252.563 252.209 255.626L242.21 285.62C242.036 286.14 241.549 286.492 241 286.492H175.324C172.096 286.492 169.23 288.557 168.209 291.62L146.945 355.402C146.332 357.24 144.613 358.479 142.676 358.479H103.324C100.096 358.479 97.2303 360.545 96.2093 363.607L74.9447 427.39C74.3321 429.227 72.6125 430.466 70.6757 430.466H55.3291C52.0944 430.466 49.2253 432.551 48.2075 435.613C39.4906 461.84 32.5347 482.672 25.5785 503.504C18.2615 525.417 10.9441 547.332 1.57651 575.527Z" fill="#4B0082" stroke="#2F014C" stroke-width="3" stroke-linejoin="round"/>
<mask id="mask1_31_2261" style="mask-type:alpha" maskUnits="userSpaceOnUse" x="3" y="240" width="576" height="336">
<path d="M49.6309 436.086C31.7326 489.938 21.2839 520.967 3 576H579L556.368 508.115C555.551 505.665 553.258 504.013 550.676 504.013H511.324C508.742 504.013 506.449 502.36 505.632 499.91L484.368 436.128C483.551 433.678 481.258 432.025 478.676 432.025H463.324C460.742 432.025 458.449 430.373 457.632 427.923L412.364 292.142C411.549 289.697 409.264 288.046 406.687 288.04L387 287.992H359.324C356.742 287.992 354.449 286.339 353.632 283.889L340.368 244.102C339.551 241.652 337.258 240 334.676 240H295.324C292.742 240 290.449 241.652 289.632 244.102L288.368 247.896C287.551 250.345 285.258 251.998 282.676 251.998H259.324C256.742 251.998 254.449 253.65 253.632 256.1L243.633 286.094C243.255 287.227 242.194 287.992 241 287.992H175.324C172.742 287.992 170.449 289.644 169.632 292.094L148.368 355.877C147.551 358.327 145.258 359.979 142.676 359.979H103.324C100.742 359.979 98.4491 361.631 97.6323 364.081L76.3677 427.864C75.5509 430.314 73.2581 431.966 70.6757 431.966H55.3291C52.7443 431.966 50.4461 433.634 49.6309 436.086Z" fill="#4B0082"/>
</mask>
<g mask="url(#mask1_31_2261)">
<path d="M628.369 379.914C646.267 326.062 656.716 295.032 675 240L99 240L121.632 307.885C122.449 310.335 124.742 311.987 127.324 311.987L166.676 311.987C169.258 311.987 171.551 313.64 172.368 316.09L193.632 379.872C194.449 382.322 196.742 383.975 199.324 383.975L214.676 383.975C217.258 383.975 219.551 385.627 220.368 388.077L265.636 523.858C266.451 526.303 268.736 527.954 271.313 527.96L291 528.008L318.676 528.008C321.258 528.008 323.551 529.661 324.368 532.111L337.632 571.898C338.449 574.348 340.742 576 343.324 576L382.676 576C385.258 576 387.551 574.348 388.368 571.898L389.632 568.104C390.449 565.655 392.742 564.002 395.324 564.002L418.676 564.002C421.258 564.002 423.551 562.35 424.368 559.9L434.367 529.906C434.745 528.773 435.806 528.008 437 528.008L502.676 528.008C505.258 528.008 507.551 526.356 508.368 523.906L529.632 460.123C530.449 457.673 532.742 456.021 535.324 456.021L574.676 456.021C577.258 456.021 579.551 454.369 580.368 451.919L601.632 388.136C602.449 385.686 604.742 384.034 607.324 384.034L622.671 384.034C625.256 384.034 627.554 382.366 628.369 379.914Z" fill="#2F014C" fill-opacity="0.5"/>
</g>
<path d="M171 577.5H172.5V576V480C172.5 459.289 155.711 442.5 135 442.5H134.884H134.767H134.651H134.535H134.419H134.303H134.187H134.071H133.955H133.839H133.724H133.608H133.493H133.378H133.263H133.147H133.032H132.918H132.803H132.688H132.573H132.459H132.344H132.23H132.116H132.002H131.888H131.774H131.66H131.546H131.433H131.319H131.206H131.093H130.979H130.866H130.753H130.64H130.528H130.415H130.302H130.19H130.078H129.965H129.853H129.741H129.629H129.518H129.406H129.294H129.183H129.072H128.96H128.849H128.738H128.627H128.517H128.406H128.296H128.185H128.075H127.965H127.855H127.745H127.635H127.525H127.416H127.306H127.197H127.088H126.979H126.87H126.761H126.652H126.544H126.435H126.327H126.219H126.111H126.003H125.895H125.788H125.68H125.573H125.465H125.358H125.251H125.145H125.038H124.931H124.825H124.719H124.612H124.506H124.4H124.295H124.189H124.084H123.978H123.873H123.768H123.663H123.558H123.454H123.349H123.245H123.141H123.037H122.933H122.829H122.725H122.622H122.519H122.416H122.313H122.21H122.107H122.004H121.902H121.8H121.698H121.596H121.494H121.392H121.291H121.189H121.088H120.987H120.886H120.786H120.685H120.585H120.484H120.384H120.284H120.185H120.085H119.986H119.886H119.787H119.688H119.59H119.491H119.393H119.294H119.196H119.098H119H118.903H118.805H118.708H118.611H118.514H118.417H118.321H118.224H118.128H118.032H117.936H117.84H117.745H117.649H117.554H117.459H117.364H117.27H117.175H117.081H116.987H116.893H116.799H116.705H116.612H116.519H116.426H116.333H116.24H116.147H116.055H115.963H115.871H115.779H115.688H115.596H115.505H115.414H115.323H115.233H115.142H115.052H114.962H114.872H114.782H114.693H114.604H114.514H114.426H114.337H114.248H114.16H114.072H113.984H113.896H113.809H113.721H113.634H113.547H113.461H113.374H113.288H113.202H113.116H113.03H112.944H112.859H112.774H112.689H112.604H112.52H112.436H112.352H112.268H112.184H112.101H112.017H111.934H111.852H111.769H111.687H111.604H111.522H111.441H111.359H111.278H111.197H111.116H111.035H110.955H110.874H110.794H110.715H110.635H110.556H110.477H110.398H110.319H110.24H110.162H110.084H110.006H109.929H109.851H109.774H109.697H109.621H109.544H109.468H109.392H109.316H109.241H109.165H109.09H109.015H108.941H108.866H108.792H108.718H108.645H108.571H108.498H108.425H108.352H108.28H108.207H108.135H108.064H107.992H107.921H107.85H107.779H107.708H107.638H107.568H107.498H107.428H107.359H107.29H107.221H107.152H107.084H107.015H106.947H106.88H106.812H106.745H106.678H106.612H106.545H106.479H106.413H106.347H106.282H106.217H106.152H106.087H106.023H105.959H105.895H105.831H105.768H105.705H105.642H105.579H105.517H105.455H105.393H105.331H105.27H105.209H105.148H105.088H105.027H104.967H104.908H104.848H104.789H104.73H104.671H104.613H104.555H104.497H104.44H104.382H104.325H104.268H104.212H104.156H104.1H104.044H103.989H103.933H103.879H103.824H103.77H103.716H103.662H103.608H103.555H103.502H103.449H103.397H103.345H103.293H103.242H103.19H103.139H103.089H103.038H102.988H102.938H102.889H102.84H102.791H102.742H102.693H102.645H102.598H102.55H102.503H102.456H102.409H102.363H102.317H102.271H102.225H102.18H102.135H102.091H102.046H102.002H101.958H101.915H101.872H101.829H101.787H101.744H101.702H101.661H101.619H101.578H101.538H101.497H101.457H101.417H101.378H101.338H101.299H101.261H101.222H101.184H101.147H101.109H101.072H101.036H100.999H100.963H100.927H100.892H100.856H100.821H100.787H100.752H100.719H100.685H100.652H100.618H100.586H100.553H100.521H100.49H100.458H100.427H100.396H100.366H100.336H100.306H100.276H100.247H100.218H100.19H100.161H100.133H100.106H100.079H100.052H100.025H99.9987H99.9728H99.9471H99.9219H99.8969H99.8723H99.8479H99.824H99.8003H99.777H99.754H99.7314H99.7091H99.6871H99.6655H99.6442H99.6232H99.6025H99.5822H99.5623H99.5427H99.5234H99.5044H99.4858H99.4676H99.4496H99.432H99.4148H99.3979H99.3813H99.3651H99.3493H99.3337H99.3186H99.3037H99.2892H99.2751H99.2613H99.2479H99.2348H99.222H99.2096H99.1976H99.1859H99.1745H99.1635H99.1529H99.1426H99.1327H99.1231H99.1138H99.105H99.0965H99.0883H99.0805H99.073H99.066H99.0592H99.0529H99.0468H99.0412H99.0359H99.031H99.0264H99.0222H99.0184H99.0149H99.0118H99.009H99.0066H99.0046H99.0029H99.0017H99.0007H99.0002C99.0001 442.5 99 442.5 99 444V442.5H97.5V444V576V577.5H99H171Z" fill="#DDA0DD" stroke="#2F014C" stroke-width="3"/>
<g opacity="0.5">
<mask id="mask2_31_2261" style="mask-type:alpha" maskUnits="userSpaceOnUse" x="99" y="444" width="72" height="132">
<path fill-rule="evenodd" clip-rule="evenodd" d="M171 576H99V444C99 444 115.118 444 135 444C154.882 444 171 460.118 171 480V576Z" fill="#DDA0DD"/>
</mask>
<g mask="url(#mask2_31_2261)">
<line x1="171" y1="547.5" x2="99" y2="547.5" stroke="#A16ABC" stroke-width="3"/>
<line x1="171" y1="565.5" x2="99" y2="565.5" stroke="#A16ABC" stroke-width="3"/>
<line x1="171" y1="528.5" x2="99" y2="528.5" stroke="#A16ABC" stroke-width="3"/>
<line x1="171" y1="510.5" x2="99" y2="510.5" stroke="#A16ABC" stroke-width="3"/>
<line x1="171" y1="491.5" x2="99" y2="491.5" stroke="#A16ABC" stroke-width="3"/>
<line x1="171" y1="473.5" x2="99" y2="473.5" stroke="#A16ABC" stroke-width="3"/>
<line x1="171" y1="454.5" x2="99" y2="454.5" stroke="#A16ABC" stroke-width="3"/>
</g>
</g>
<path d="M135 577.5H136.5V576V480C136.5 459.289 119.711 442.5 99 442.5C78.2893 442.5 61.5 459.289 61.5 480V576V577.5H63H73.5H75H123H124.5H135ZM121.5 574.5H76.5V480C76.5 467.574 86.5736 457.5 99 457.5C111.426 457.5 121.5 467.574 121.5 480V574.5Z" fill="#E6E6FA" stroke="#2F014C" stroke-width="3"/>
<path d="M123 576V480C123 466.745 112.255 456 99 456C85.7452 456 75 466.745 75 480V576H123Z" fill="#2D004C"/>
<path d="M75 480L123 576H75V480Z" fill="#FF69B4" fill-opacity="0.5"/>
<g opacity="0.5">
<path d="M483 321.176C483 296.226 462.774 276 437.824 276H288.176C263.226 276 243 296.226 243 321.176V321.176C243 322.736 244.264 324 245.824 324H480.176C481.736 324 483 322.736 483 321.176V321.176Z" fill="#FF69B4"/>
<path d="M555 322.588C555 310.113 544.887 300 532.412 300H481.588C469.113 300 459 310.113 459 322.588V322.588C459 323.368 459.632 324 460.412 324H553.588C554.368 324 555 323.368 555 322.588V322.588Z" fill="#FF69B4"/>
<path d="M291 322.588C291 310.113 280.887 300 268.412 300H217.588C205.113 300 195 310.113 195 322.588V322.588C195 323.368 195.632 324 196.412 324H289.588C290.368 324 291 323.368 291 322.588V322.588Z" fill="#FF69B4"/>
<path d="M147 322.588C147 310.113 136.887 300 124.412 300H49.5882C37.1131 300 27 310.113 27 322.588V322.588C27 323.368 27.6321 324 28.4118 324H145.588C146.368 324 147 323.368 147 322.588V322.588Z" fill="#FF69B4"/>
<path d="M579 323.294C579 317.057 573.943 312 567.706 312H494.294C488.057 312 483 317.057 483 323.294V323.294C483 323.684 483.316 324 483.706 324H578.294C578.684 324 579 323.684 579 323.294V323.294Z" fill="#FF69B4"/>
<path d="M243 275.294C243 269.057 237.943 264 231.706 264H158.294C152.057 264 147 269.057 147 275.294V275.294C147 275.684 147.316 276 147.706 276H242.294C242.684 276 243 275.684 243 275.294V275.294Z" fill="#FF69B4"/>
<path d="M555 263.294C555 257.057 549.943 252 543.706 252H518.294C512.057 252 507 257.057 507 263.294V263.294C507 263.684 507.316 264 507.706 264H554.294C554.684 264 555 263.684 555 263.294V263.294Z" fill="#FF69B4"/>
<path d="M387 275.294C387 269.057 381.943 264 375.706 264H302.294C296.057 264 291 269.057 291 275.294V275.294C291 275.684 291.316 276 291.706 276H386.294C386.684 276 387 275.684 387 275.294V275.294Z" fill="#FF69B4"/>
<path d="M64 323.294C64 317.057 58.9435 312 52.7059 312H14.2941C8.05655 312 3 317.057 3 323.294V323.294C3 323.684 3.31603 324 3.70588 324H63.2941C63.684 324 64 323.684 64 323.294V323.294Z" fill="#FF69B4"/>
</g>
</svg>
